<svg xmlns="http://www.w3.org/2000/svg" xmlns:xlink="http://www.w3.org/1999/xlink" width="400" height="400" viewBox="0 0 400 400">
<rect data-name="background" width="100%" height="100%" fill="#F7F7F7"/><g data-name="icon" fill="#3F3F44" data="id:6606791" transform="translate(3.963602061972658,139.56255666961493) scale(1.1922952252466636)">
  <path d="M19.39,95.02h7.75c3.25,0,5.88-2.63,5.88-5.88v-25.54c0-3.25-2.63-5.88-5.88-5.88h-11.05v-9.68c0-18.7,15.21-33.9,33.9-33.9s33.9,15.21,33.9,33.9v9.9h-11.03c-3.25,0-5.88,2.63-5.88,5.88v25.54c0,3.25,2.63,5.88,5.88,5.88h7.75c6.23,0,11.28-5.05,11.28-11.28v-2.7h0V48.04c0-23.11-18.8-41.9-41.9-41.9S8.1,24.93,8.1,48.04v33.21h.02v2.48c0,6.23,5.05,11.28,11.28,11.28Z"/>
  </g><g data-name="business_name" fill="#3F3F44" data="id:10" transform="translate(133.7537725412411,129.37981985827568) scale(2.2082605606235233)"><path d="M2.16,48l0-32.4l5.44,0l0,11.48q1.2-1.2,2.62-1.88t3.1-0.68q1.4,0,2.24,0.7t1.24,1.86t0.4,2.52l0,18.4l-5.44,0l0-17.32q0-1.04-0.32-1.6t-1.24-0.56q-0.56,0-1.26,0.32t-1.34,0.84l0,18.32l-5.44,0z M28.2,48.36q-2.6,0-4.24-0.98t-2.42-2.88t-0.78-4.58l0-6.96q0-2.76,0.78-4.64t2.44-2.84t4.22-0.96q2.76,0,4.3,1.04t2.2,3.02t0.66,4.82l0,3.28l-9.2,0l0,4.56q0,1.12,0.22,1.84t0.7,1.04t1.16,0.32q0.72,0,1.16-0.34t0.64-1t0.2-1.66l0-1.92l5.08,0l0,1.56q0,3.52-1.76,5.4t-5.36,1.88z M26.16,34l4.08,0l0-2.2q0-1.2-0.2-1.94t-0.64-1.08t-1.24-0.34q-0.72,0-1.16,0.36t-0.64,1.2t-0.2,2.4l0,1.6z M43.52,48.36q-1.56,0-2.68-0.82t-1.72-2.08t-0.6-2.62q0-2.16,0.8-3.64t2.12-2.48t3-1.74t3.4-1.34l0-2q0-1-0.14-1.68t-0.52-1.04t-1.18-0.36q-0.68,0-1.1,0.32t-0.6,0.9t-0.22,1.34l-0.08,1.4l-5.16-0.2q0.12-4,1.98-5.9t5.66-1.9q3.48,0,5.06,1.92t1.58,5.2l0,10.68q0,1.28,0.06,2.32t0.16,1.88t0.18,1.48l-4.88,0q-0.12-0.8-0.3-1.82t-0.26-1.5q-0.4,1.4-1.52,2.54t-3.04,1.14z M45.52,44.32q0.52,0,0.98-0.26t0.82-0.62t0.52-0.64l0-6.44q-0.88,0.52-1.66,1.04t-1.36,1.14t-0.88,1.34t-0.3,1.68q0,1.28,0.5,2.02t1.38,0.74z M57.24,48l0-23.12l5.44,0l0,3.56q1.2-2.04,2.4-2.94t2.64-0.9q0.24,0,0.42,0.02t0.42,0.06l0,5.64q-0.48-0.2-1.06-0.34t-1.18-0.14q-1.08,0-1.96,0.52t-1.68,1.72l0,15.92l-5.44,0z M76.44,48.36q-2.76,0-4.18-1.96t-1.42-6.28l0-7.08q0-2.4,0.54-4.32t1.74-3.06t3.24-1.14q1.24,0,2.3,0.5t1.94,1.3l0-10.72l5.44,0l0,32.4l-5.44,0l0-1.64q-0.92,0.92-1.96,1.46t-2.2,0.54z M78.44,44.6q0.44,0,1-0.2t1.16-0.56l0-14.84q-0.48-0.32-1.04-0.54t-1.16-0.22q-1.16,0-1.62,1.06t-0.46,2.58l0,8.64q0,1.16,0.16,2.08t0.62,1.46t1.34,0.54z M90.52,48l0-32.4l5.4,0l0,32.4l-5.4,0z M107.24,48.36q-2.6,0-4.24-0.98t-2.42-2.88t-0.78-4.58l0-6.96q0-2.76,0.78-4.64t2.44-2.84t4.22-0.96q2.76,0,4.3,1.04t2.2,3.02t0.66,4.82l0,3.28l-9.2,0l0,4.56q0,1.12,0.22,1.84t0.7,1.04t1.16,0.32q0.72,0,1.16-0.34t0.64-1t0.2-1.66l0-1.92l5.08,0l0,1.56q0,3.52-1.76,5.4t-5.36,1.88z M105.2,34l4.08,0l0-2.2q0-1.2-0.2-1.94t-0.64-1.08t-1.24-0.34q-0.72,0-1.16,0.36t-0.64,1.2t-0.2,2.4l0,1.6z"/></g></svg>